<svg width="420" height="400" viewBox="0 0 420 400" fill="none" xmlns="http://www.w3.org/2000/svg">
<g clip-path="url(#clip0_1617_8952)">
<path d="M61.5092 192.765C-20.4965 240.171 -20.4965 317.039 61.5092 364.445C143.524 411.851 276.486 411.851 358.491 364.445C440.497 317.039 440.497 240.171 358.491 192.765C276.476 145.359 143.515 145.359 61.5092 192.765Z" fill="#F0E7E1"/>
<path d="M47.8718 332.616L39.2668 337.59C39.3407 332.884 39.0267 323.973 36.5339 312.389C30.828 285.839 19.2501 281.226 13.6088 270.891C7.68139 260.019 15.2984 253.502 22.4816 254.62C28.8984 255.609 39.0637 263.514 44.1509 279.83C50.8632 301.342 49.2105 322.808 47.8718 332.616Z" fill="#EF6E0B"/>
<path opacity="0.5" d="M47.8718 332.616L39.2668 337.59C39.3407 332.884 39.0267 323.973 36.5339 312.389C30.828 285.839 19.2501 281.226 13.6088 270.891C7.68139 260.019 15.2984 253.502 22.4816 254.62C28.8984 255.609 39.0637 263.514 44.1509 279.83C50.8632 301.342 49.2105 322.808 47.8718 332.616Z" fill="white"/>
<path d="M42.8118 330.508C42.5625 330.471 42.3964 330.24 42.4241 330C46.9851 298.041 32.7573 270.502 21.1886 261.156C20.9947 260.999 20.967 260.712 21.124 260.518C21.2809 260.324 21.5672 260.296 21.761 260.453C33.4867 269.938 47.936 297.819 43.3196 330.129C43.2827 330.379 43.0519 330.545 42.8118 330.517V330.508Z" fill="white"/>
<path d="M43.5605 335.111L39.2672 337.589L38.5655 337.996C37.1529 331.571 33.3767 324.869 26.2213 317.686C17.8286 309.264 6.13069 301.397 8.19883 294.325C10.2577 287.253 19.7029 289.12 26.2213 293.308C32.3426 297.246 45.3793 311.769 43.5605 335.111Z" fill="#EF6E0B"/>
<path opacity="0.65" d="M43.5605 335.111L39.2672 337.589L38.5655 337.996C37.1529 331.571 33.3767 324.869 26.2213 317.686C17.8286 309.264 6.13069 301.397 8.19883 294.325C10.2577 287.253 19.7029 289.12 26.2213 293.308C32.3426 297.246 45.3793 311.769 43.5605 335.111Z" fill="white"/>
<path d="M41.2803 333.115C41.0679 333.087 40.9018 332.902 40.8925 332.68C40.2924 317.02 23.1286 296.747 14.9576 293.419C14.7268 293.326 14.616 293.058 14.7083 292.827C14.8006 292.596 15.0592 292.485 15.2992 292.577C23.8672 296.063 41.1787 316.364 41.7973 332.643C41.8066 332.893 41.6127 333.105 41.3634 333.115C41.3357 333.115 41.308 333.115 41.2803 333.115Z" fill="white"/>
<path d="M75.4416 380.504L149.941 267.231L99.687 238.176L25.1875 351.449L75.4416 380.504Z" fill="#EF6E0B"/>
<path opacity="0.2" d="M75.4416 380.504L149.941 267.231L99.687 238.176L25.1875 351.449L75.4416 380.504Z" fill="white"/>
<path d="M149.941 267.23L75.4414 380.503L105.586 363.068L159.922 280.783L149.941 267.23Z" fill="#EF6E0B"/>
<path opacity="0.2" d="M149.941 267.23L75.4414 380.503L105.586 363.068L159.922 280.783L149.941 267.23Z" fill="black"/>
<path d="M285.137 21.6133L290.058 43.6799L310.296 55.5313L305.264 33.2521L285.137 21.6133Z" fill="#EF6E0B"/>
<path opacity="0.2" d="M285.137 21.6133L290.058 43.6799L310.296 55.5313L305.264 33.2521L285.137 21.6133Z" fill="black"/>
<path d="M241.512 130.431L305.264 33.2524L285.137 21.6136L361.658 0L375.59 73.9097L355.518 62.2986L291.766 159.477L241.512 130.431Z" fill="#EF6E0B"/>
<path opacity="0.2" d="M241.512 130.431L305.264 33.2524L285.137 21.6136L361.658 0L375.59 73.9097L355.518 62.2986L291.766 159.477L241.512 130.431Z" fill="white"/>
<path d="M355.519 62.2988L291.794 159.477L303.086 172.318L360.624 84.6243L380.65 96.2076L375.591 73.9099L355.519 62.2988Z" fill="#EF6E0B"/>
<path opacity="0.2" d="M355.519 62.2988L291.794 159.477L303.086 172.318L360.624 84.6243L380.65 96.2076L375.591 73.9099L355.519 62.2988Z" fill="black"/>
<path d="M252.794 143.364L241.512 130.523L291.794 159.477L303.085 172.318L252.794 143.364Z" fill="#EF6E0B"/>
<path opacity="0.4" d="M252.794 143.364L241.512 130.523L291.794 159.477L303.085 172.318L252.794 143.364Z" fill="black"/>
<path opacity="0.2" d="M360.624 84.6243L355.519 62.2988L375.591 73.9099L380.65 96.2076L360.624 84.6243Z" fill="black"/>
<path d="M110.351 230.095L233.507 136.596L283.789 165.642L160.605 259.141L110.351 230.095Z" fill="#EF6E0B"/>
<path d="M283.788 165.643L295.08 178.492L170.585 272.694L160.604 259.141L283.788 165.643Z" fill="#EF6E0B"/>
<path opacity="0.2" d="M283.788 165.643L295.08 178.492L170.585 272.694L160.604 259.141L283.788 165.643Z" fill="black"/>
<path d="M110.351 230.094L120.331 243.646L170.585 272.692L160.605 259.14L110.351 230.094Z" fill="#EF6E0B"/>
<path opacity="0.4" d="M110.351 230.094L120.331 243.646L170.585 272.692L160.605 259.14L110.351 230.094Z" fill="black"/>
<path d="M211.107 352.797C209.528 350.125 206.897 347.62 203.222 345.494C190.324 338.033 169.412 338.033 156.513 345.494C152.83 347.62 150.207 350.134 148.629 352.797H146.847V359.555H146.874C147.114 364.251 150.318 368.91 156.523 372.497C169.421 379.957 190.333 379.957 203.231 372.497C209.436 368.91 212.667 364.251 212.907 359.555V352.797H211.125H211.107Z" fill="#EF6E0B"/>
<path opacity="0.25" d="M211.107 352.797C209.528 350.125 206.897 347.62 203.222 345.494C190.324 338.033 169.412 338.033 156.513 345.494C152.83 347.62 150.207 350.134 148.629 352.797H146.847V359.555H146.874C147.114 364.251 150.318 368.91 156.523 372.497C169.421 379.957 190.333 379.957 203.231 372.497C209.436 368.91 212.667 364.251 212.907 359.555V352.797H211.125H211.107Z" fill="black"/>
<path opacity="0.1" d="M179.864 339.9C171.406 339.9 162.958 341.768 156.505 345.493C152.821 347.62 150.199 350.134 148.62 352.796H146.838V359.554H146.866C147.106 364.25 150.309 368.91 156.514 372.496C162.968 376.222 171.416 378.089 179.873 378.089V339.91L179.864 339.9Z" fill="black"/>
<path opacity="0.1" d="M161.823 342.998C159.939 343.71 158.157 344.533 156.505 345.494C152.821 347.62 150.199 350.135 148.62 352.797H146.838V359.555H146.866C147.106 364.251 150.309 368.91 156.514 372.497C158.167 373.449 159.948 374.281 161.832 374.993V343.007L161.823 342.998Z" fill="black"/>
<path opacity="0.5" d="M197.895 342.998C199.778 343.71 201.56 344.533 203.213 345.494C206.897 347.62 209.519 350.135 211.098 352.797H212.88V359.555C212.64 364.251 209.408 368.91 203.204 372.497C201.551 373.449 199.769 374.281 197.886 374.993V343.007L197.895 342.998Z" fill="#EF6E0B"/>
<path d="M156.505 339.299C143.606 346.76 143.606 358.842 156.505 366.302C167.787 372.829 185.209 373.643 198.025 368.752C198.191 368.688 198.366 368.623 198.532 368.549C200.176 367.893 201.736 367.144 203.204 366.302C213.96 360.081 215.752 350.642 208.559 343.358C207.128 341.906 205.346 340.538 203.204 339.309C190.306 331.857 169.394 331.848 156.495 339.309L156.505 339.299Z" fill="#EF6E0B"/>
<path opacity="0.2" d="M156.505 339.299C143.606 346.76 143.606 358.842 156.505 366.302C167.787 372.829 185.209 373.643 198.025 368.752C198.191 368.688 198.366 368.623 198.532 368.549C200.176 367.893 201.736 367.144 203.204 366.302C213.96 360.081 215.752 350.642 208.559 343.358C207.128 341.906 205.346 340.538 203.204 339.309C190.306 331.857 169.394 331.848 156.495 339.309L156.505 339.299Z" fill="black"/>
<path opacity="0.5" d="M208.569 343.357C208.707 343.515 213.222 348.275 212.022 355.135C210.877 361.698 201.7 367.217 198.542 368.549C200.185 367.892 201.746 367.143 203.214 366.302C213.97 360.081 215.761 350.642 208.569 343.357Z" fill="#F5F5F5"/>
<path opacity="0.5" d="M151.15 362.244C151.012 362.087 146.497 357.326 147.697 350.466C148.842 343.903 158.019 338.384 161.177 337.053C159.533 337.709 157.973 338.458 156.505 339.299C145.749 345.521 143.958 354.959 151.15 362.244Z" fill="#F5F5F5"/>
<path d="M201.58 365.322C213.573 358.389 213.573 347.157 201.58 340.223C189.587 333.29 170.152 333.29 158.158 340.223C146.165 347.157 146.165 358.389 158.158 365.322C170.152 372.256 189.587 372.256 201.58 365.322Z" fill="#EF6E0B"/>
<path opacity="0.4" d="M201.58 365.322C213.573 358.389 213.573 347.157 201.58 340.223C189.587 333.29 170.152 333.29 158.158 340.223C146.165 347.157 146.165 358.389 158.158 365.322C170.152 372.256 189.587 372.256 201.58 365.322Z" fill="white"/>
<path opacity="0.2" d="M209.179 358.075C211.644 353.509 210.841 348.47 206.769 344.199C206.012 343.414 205.144 342.646 204.165 341.916C203.408 341.343 202.577 340.797 201.682 340.28C201.192 339.993 200.685 339.716 200.167 339.457C201.442 341.556 200.98 343.811 193.741 344.236C179.588 345.068 197.527 358.602 197.527 358.602C197.527 358.602 206.649 354.193 209.179 358.075Z" fill="white"/>
<path opacity="0.5" d="M207.719 354.33C209.843 354.09 210.895 351.908 210.074 349.449C209.252 346.99 206.861 345.187 204.737 345.428C202.614 345.668 201.561 347.85 202.383 350.309C203.205 352.768 205.596 354.571 207.719 354.33Z" fill="white"/>
<path d="M185.339 365.609C184.647 360.349 161.676 345.779 161.676 345.779C161.676 345.779 156.579 343.736 158.269 340.168C157.382 340.676 156.57 341.203 155.813 341.758C155.277 342.146 154.788 342.535 154.317 342.941C147.476 348.867 147.466 356.66 154.317 362.595C154.779 363.002 155.277 363.39 155.804 363.778C156.505 364.296 157.262 364.786 158.084 365.258C158.86 365.71 159.681 366.136 160.522 366.533C161.196 366.848 161.888 367.153 162.59 367.43C163.291 367.707 164.012 367.966 164.741 368.207C166.92 368.928 169.228 369.473 171.592 369.852C172.1 369.935 172.617 370.009 173.134 370.074C175.386 370.36 177.685 370.508 179.984 370.508C182.81 370.508 185.626 370.277 188.368 369.815C188.368 369.815 184.675 369.057 185.33 365.6L185.339 365.609Z" fill="#EF6E0B"/>
<path opacity="0.3" d="M185.339 365.609C184.647 360.349 161.676 345.779 161.676 345.779C161.676 345.779 156.579 343.736 158.269 340.168C157.382 340.676 156.57 341.203 155.813 341.758C155.277 342.146 154.788 342.535 154.317 342.941C147.476 348.867 147.466 356.66 154.317 362.595C154.779 363.002 155.277 363.39 155.804 363.778C156.505 364.296 157.262 364.786 158.084 365.258C158.86 365.71 159.681 366.136 160.522 366.533C161.196 366.848 161.888 367.153 162.59 367.43C163.291 367.707 164.012 367.966 164.741 368.207C166.92 368.928 169.228 369.473 171.592 369.852C172.1 369.935 172.617 370.009 173.134 370.074C175.386 370.36 177.685 370.508 179.984 370.508C182.81 370.508 185.626 370.277 188.368 369.815C188.368 369.815 184.675 369.057 185.33 365.6L185.339 365.609Z" fill="white"/>
<path d="M163.688 343.422C155.12 348.377 154.769 356.281 162.645 361.467C162.977 361.689 163.328 361.901 163.698 362.114C172.626 367.282 187.112 367.282 196.04 362.114C204.968 356.946 204.977 348.58 196.04 343.412C195.68 343.2 195.301 342.996 194.914 342.802C185.93 338.254 172.256 338.457 163.688 343.412V343.422Z" fill="#EF6E0B"/>
<path opacity="0.2" d="M163.688 343.422C155.12 348.377 154.769 356.281 162.645 361.467C162.977 361.689 163.328 361.901 163.698 362.114C172.626 367.282 187.112 367.282 196.04 362.114C204.968 356.946 204.977 348.58 196.04 343.412C195.68 343.2 195.301 342.996 194.914 342.802C185.93 338.254 172.256 338.457 163.688 343.412V343.422Z" fill="black"/>
<path d="M179.874 365.405C191.949 365.405 201.737 359.747 201.737 352.768C201.737 345.789 191.949 340.131 179.874 340.131C167.799 340.131 158.011 345.789 158.011 352.768C158.011 359.747 167.799 365.405 179.874 365.405Z" fill="#EF6E0B"/>
<path opacity="0.5" d="M179.874 365.405C191.949 365.405 201.737 359.747 201.737 352.768C201.737 345.789 191.949 340.131 179.874 340.131C167.799 340.131 158.011 345.789 158.011 352.768C158.011 359.747 167.799 365.405 179.874 365.405Z" fill="black"/>
<path d="M164.418 347.361C172.959 342.424 186.799 342.424 195.339 347.361C198.829 349.376 200.888 351.909 201.525 354.534C200.888 357.16 198.829 359.693 195.339 361.708C186.799 366.645 172.959 366.645 164.418 361.708C160.928 359.693 158.869 357.16 158.232 354.534C158.869 351.909 160.928 349.376 164.418 347.361Z" fill="#EF6E0B"/>
<path opacity="0.35" d="M164.418 347.361C172.959 342.424 186.799 342.424 195.339 347.361C198.829 349.376 200.888 351.909 201.525 354.534C200.888 357.16 198.829 359.693 195.339 361.708C186.799 366.645 172.959 366.645 164.418 361.708C160.928 359.693 158.869 357.16 158.232 354.534C158.869 351.909 160.928 349.376 164.418 347.361Z" fill="black"/>
<path d="M193.64 356.577C193.64 356.151 193.64 354.414 193.64 353.961C193.64 352.888 192.901 351.853 191.304 350.919C191.285 350.91 191.267 350.891 191.248 350.882C188.312 349.181 185.275 349.403 182.579 350.087H182.56C181.415 350.374 180.317 350.753 179.329 351.095C177.953 351.575 176.827 351.964 175.857 352.167C175.257 352.297 174.712 352.352 174.205 352.324C173.725 352.297 173.272 352.176 172.838 351.964C172.875 351.936 172.912 351.917 172.949 351.89C173.06 351.816 173.171 351.751 173.291 351.677C173.595 351.501 173.9 351.344 174.205 351.224C175.903 350.503 177.547 350.54 179.061 351.113L181.868 348.284V345.687C179.375 344.836 176.79 344.753 174.205 345.409C173.392 345.613 172.58 345.899 171.767 346.251L168.96 344.633L165.618 346.565V349.163L166.763 349.828C166.44 350.337 166.274 350.845 166.274 351.344C166.274 351.779 166.274 353.498 166.274 353.933C166.274 355.005 167.04 356.041 168.656 356.974C170.216 357.871 171.767 358.25 173.272 358.305C173.577 358.315 173.891 358.305 174.195 358.305C175.94 358.222 177.621 357.751 179.153 357.233C179.486 357.122 179.8 357.011 180.123 356.9L177.298 359.729V362.327C181.277 363.926 185.173 363.168 188.109 361.855L190.879 363.455L194.221 361.523V358.925L193.076 358.259C193.455 357.695 193.649 357.131 193.64 356.567V356.577ZM186.586 356.355C186.327 356.503 186.069 356.632 185.81 356.743C183.825 357.594 181.776 357.418 180.344 356.826C182.967 355.902 185.155 355.088 187.02 356.087C186.891 356.179 186.752 356.272 186.595 356.355H186.586Z" fill="#EF6E0B"/>
<path d="M182.579 350.087H182.56C181.415 350.374 180.317 350.753 179.329 351.095C177.953 351.575 176.827 351.964 175.857 352.167C175.257 352.297 174.712 352.352 174.205 352.324C173.641 352.287 173.115 352.139 172.617 351.853C171.536 351.233 171.379 350.318 172.949 349.292C173.06 349.218 173.171 349.153 173.291 349.079C173.595 348.904 173.9 348.747 174.205 348.626C175.903 347.905 177.547 347.942 179.061 348.516L181.868 345.687C179.375 344.836 176.79 344.753 174.205 345.409C173.392 345.613 172.58 345.899 171.767 346.251L168.96 344.633L165.618 346.565L168.388 348.164C168.388 348.164 168.388 348.164 168.36 348.183C165.544 350.318 165.489 352.537 168.656 354.367C170.216 355.264 171.767 355.643 173.272 355.698C173.577 355.708 173.891 355.698 174.195 355.698C175.94 355.615 177.621 355.144 179.153 354.626C182.366 353.554 184.961 352.287 187.131 353.535C188.58 354.377 188.174 355.43 186.586 356.346C186.327 356.494 186.069 356.623 185.81 356.734C183.779 357.603 181.674 357.399 180.243 356.771L177.307 359.72C181.286 361.319 185.182 360.561 188.118 359.248L190.888 360.848L194.231 358.916L191.461 357.316C194.24 355.162 194.563 352.814 191.313 350.91C191.295 350.901 191.276 350.882 191.258 350.873C188.322 349.172 185.284 349.394 182.588 350.078L182.579 350.087Z" fill="#EF6E0B"/>
<g opacity="0.3">
<path d="M182.579 350.087H182.56C181.415 350.374 180.317 350.753 179.329 351.095C177.953 351.575 176.827 351.964 175.857 352.167C175.257 352.297 174.712 352.352 174.205 352.324C173.641 352.287 173.115 352.139 172.617 351.853C171.536 351.233 171.379 350.318 172.949 349.292C173.06 349.218 173.171 349.153 173.291 349.079C173.595 348.904 173.9 348.747 174.205 348.626C175.903 347.905 177.547 347.942 179.061 348.516L181.868 345.687C179.375 344.836 176.79 344.753 174.205 345.409C173.392 345.613 172.58 345.899 171.767 346.251L168.96 344.633L165.618 346.565L168.388 348.164C168.388 348.164 168.388 348.164 168.36 348.183C165.544 350.318 165.489 352.537 168.656 354.367C170.216 355.264 171.767 355.643 173.272 355.698C173.577 355.708 173.891 355.698 174.195 355.698C175.94 355.615 177.621 355.144 179.153 354.626C182.366 353.554 184.961 352.287 187.131 353.535C188.58 354.377 188.174 355.43 186.586 356.346C186.327 356.494 186.069 356.623 185.81 356.734C183.779 357.603 181.674 357.399 180.243 356.771L177.307 359.72C181.286 361.319 185.182 360.561 188.118 359.248L190.888 360.848L194.231 358.916L191.461 357.316C194.24 355.162 194.563 352.814 191.313 350.91C191.295 350.901 191.276 350.882 191.258 350.873C188.322 349.172 185.284 349.394 182.588 350.078L182.579 350.087Z" fill="white"/>
</g>
<path opacity="0.45" d="M165.609 346.575L168.989 345.04L171.758 346.26L168.952 344.643L165.609 346.575Z" fill="#F5F5F5"/>
<path opacity="0.45" d="M173.808 345.521C175.608 345.133 178.526 345.022 181 345.762L179.061 348.526L181.868 345.697C178.886 344.745 176.245 344.809 173.817 345.521H173.808Z" fill="#F5F5F5"/>
<path opacity="0.45" d="M191.258 350.883C191.258 350.883 191.295 350.902 191.314 350.92C194.564 352.825 194.241 355.173 191.462 357.327C193.927 354.637 193.484 352.76 190.806 351.216C188.129 349.672 184.712 349.691 182.589 350.088C185.294 349.404 188.322 349.182 191.258 350.883Z" fill="#F5F5F5"/>
<path opacity="0.45" d="M191.452 357.336L193.576 358.963L190.88 360.867L194.222 358.935L191.452 357.336Z" fill="#F5F5F5"/>
<path opacity="0.45" d="M185.811 356.744C182.875 358.14 180.484 357.206 180.484 357.206L177.308 359.73L180.244 356.781C181.675 357.401 183.78 357.613 185.811 356.744Z" fill="#F5F5F5"/>
<path opacity="0.45" d="M175.848 352.178C174.583 352.677 172.764 352.594 171.841 351.799C170.872 350.967 171.49 350.07 172.94 349.303C171.38 350.329 171.527 351.244 172.608 351.863C173.115 352.159 173.632 352.307 174.196 352.335C174.703 352.363 175.239 352.307 175.848 352.178Z" fill="#F5F5F5"/>
<path opacity="0.45" d="M168.352 348.193C168.112 348.406 166.099 350.283 166.994 352.159C167.936 354.165 170.891 355.45 173.273 355.709C171.758 355.654 170.217 355.284 168.656 354.378C165.489 352.548 165.554 350.329 168.361 348.193H168.352Z" fill="#F5F5F5"/>
<path d="M217.349 343.275C215.77 340.604 213.139 338.098 209.464 335.972C196.566 328.512 175.654 328.512 162.756 335.972C159.072 338.098 156.45 340.613 154.871 343.275H153.089V350.033H153.117C153.357 354.729 156.56 359.389 162.765 362.975C175.663 370.436 196.575 370.436 209.474 362.975C215.678 359.389 218.91 354.729 219.15 350.033V343.275H217.368H217.349Z" fill="#EF6E0B"/>
<path opacity="0.25" d="M217.349 343.275C215.77 340.604 213.139 338.098 209.464 335.972C196.566 328.512 175.654 328.512 162.756 335.972C159.072 338.098 156.45 340.613 154.871 343.275H153.089V350.033H153.117C153.357 354.729 156.56 359.389 162.765 362.975C175.663 370.436 196.575 370.436 209.474 362.975C215.678 359.389 218.91 354.729 219.15 350.033V343.275H217.368H217.349Z" fill="black"/>
<path opacity="0.1" d="M186.115 330.379C177.657 330.379 169.209 332.246 162.756 335.972C159.072 338.098 156.45 340.613 154.871 343.275H153.089V350.033H153.107C153.347 354.729 156.551 359.388 162.756 362.975C169.209 366.701 177.657 368.568 186.115 368.568V330.388V330.379Z" fill="black"/>
<path opacity="0.1" d="M168.074 333.486C166.19 334.198 164.408 335.021 162.756 335.982C159.072 338.109 156.45 340.623 154.871 343.285H153.089V350.043H153.107C153.347 354.739 156.551 359.399 162.756 362.986C164.408 363.938 166.19 364.77 168.074 365.482V333.496V333.486Z" fill="black"/>
<path opacity="0.5" d="M204.146 333.486C206.029 334.198 207.811 335.021 209.464 335.982C213.148 338.109 215.77 340.623 217.349 343.285H219.131V350.043C218.891 354.739 215.659 359.399 209.455 362.986C207.802 363.938 206.02 364.77 204.137 365.482V333.496L204.146 333.486Z" fill="#EF6E0B"/>
<path d="M162.756 329.778C149.857 337.238 149.857 349.321 162.756 356.781C174.038 363.308 191.46 364.121 204.276 359.231C204.442 359.166 204.617 359.101 204.783 359.027C206.427 358.371 207.987 357.622 209.455 356.781C220.211 350.559 222.003 341.121 214.81 333.836C213.379 332.385 211.597 331.017 209.455 329.787C196.557 322.336 175.645 322.327 162.746 329.787L162.756 329.778Z" fill="#EF6E0B"/>
<path opacity="0.2" d="M162.756 329.778C149.857 337.238 149.857 349.321 162.756 356.781C174.038 363.308 191.46 364.121 204.276 359.231C204.442 359.166 204.617 359.101 204.783 359.027C206.427 358.371 207.987 357.622 209.455 356.781C220.211 350.559 222.003 341.121 214.81 333.836C213.379 332.385 211.597 331.017 209.455 329.787C196.557 322.336 175.645 322.327 162.746 329.787L162.756 329.778Z" fill="black"/>
<path opacity="0.5" d="M214.82 333.836C214.958 333.993 219.473 338.754 218.273 345.613C217.128 352.177 207.951 357.696 204.793 359.027C206.436 358.371 207.997 357.622 209.465 356.781C220.221 350.559 222.012 341.121 214.82 333.836Z" fill="#F5F5F5"/>
<path opacity="0.5" d="M157.401 352.722C157.262 352.565 152.748 347.804 153.948 340.945C155.093 334.381 164.27 328.862 167.428 327.531C165.784 328.188 164.224 328.936 162.756 329.778C152 335.999 150.209 345.438 157.401 352.722Z" fill="#F5F5F5"/>
<path d="M207.831 355.811C219.824 348.877 219.824 337.645 207.831 330.712C195.838 323.778 176.403 323.778 164.409 330.712C152.416 337.645 152.416 348.877 164.409 355.811C176.403 362.744 195.838 362.744 207.831 355.811Z" fill="#EF6E0B"/>
<path opacity="0.4" d="M207.831 355.811C219.824 348.877 219.824 337.645 207.831 330.712C195.838 323.778 176.403 323.778 164.409 330.712C152.416 337.645 152.416 348.877 164.409 355.811C176.403 362.744 195.838 362.744 207.831 355.811Z" fill="white"/>
<path opacity="0.2" d="M215.43 348.554C217.895 343.987 217.092 338.949 213.02 334.678C212.263 333.892 211.395 333.125 210.416 332.395C209.659 331.821 208.828 331.276 207.933 330.758C207.443 330.472 206.936 330.194 206.418 329.936C207.693 332.034 207.231 334.29 199.992 334.715C185.839 335.547 203.778 349.081 203.778 349.081C203.778 349.081 212.9 344.671 215.43 348.554Z" fill="white"/>
<path opacity="0.5" d="M213.97 344.809C216.094 344.568 217.146 342.387 216.325 339.928C215.503 337.469 213.112 335.666 210.988 335.906C208.865 336.147 207.812 338.328 208.634 340.787C209.456 343.246 211.847 345.049 213.97 344.809Z" fill="white"/>
<path d="M191.59 356.097C190.898 350.837 167.927 336.268 167.927 336.268C167.927 336.268 162.83 334.225 164.52 330.656C163.633 331.165 162.821 331.692 162.064 332.246C161.528 332.635 161.039 333.023 160.568 333.43C153.727 339.355 153.717 347.148 160.568 353.083C161.03 353.49 161.528 353.878 162.055 354.267C162.756 354.784 163.513 355.274 164.335 355.746C165.111 356.199 165.932 356.624 166.773 357.022C167.447 357.336 168.139 357.641 168.841 357.918C169.542 358.196 170.263 358.454 170.992 358.695C173.171 359.416 175.479 359.961 177.843 360.34C178.351 360.424 178.868 360.497 179.385 360.562C181.637 360.849 183.936 360.997 186.235 360.997C189.061 360.997 191.877 360.766 194.619 360.303C194.619 360.303 190.926 359.545 191.581 356.088L191.59 356.097Z" fill="#EF6E0B"/>
<path opacity="0.3" d="M191.59 356.097C190.898 350.837 167.927 336.268 167.927 336.268C167.927 336.268 162.83 334.225 164.52 330.656C163.633 331.165 162.821 331.692 162.064 332.246C161.528 332.635 161.039 333.023 160.568 333.43C153.727 339.355 153.717 347.148 160.568 353.083C161.03 353.49 161.528 353.878 162.055 354.267C162.756 354.784 163.513 355.274 164.335 355.746C165.111 356.199 165.932 356.624 166.773 357.022C167.447 357.336 168.139 357.641 168.841 357.918C169.542 358.196 170.263 358.454 170.992 358.695C173.171 359.416 175.479 359.961 177.843 360.34C178.351 360.424 178.868 360.497 179.385 360.562C181.637 360.849 183.936 360.997 186.235 360.997C189.061 360.997 191.877 360.766 194.619 360.303C194.619 360.303 190.926 359.545 191.581 356.088L191.59 356.097Z" fill="white"/>
<path d="M169.939 333.91C161.371 338.865 161.02 346.769 168.896 351.955C169.228 352.177 169.579 352.39 169.949 352.602C178.877 357.77 193.363 357.77 202.291 352.602C211.219 347.435 211.228 339.068 202.291 333.901C201.931 333.688 201.552 333.485 201.165 333.291C192.181 328.742 178.507 328.946 169.939 333.901V333.91Z" fill="#EF6E0B"/>
<path opacity="0.2" d="M169.939 333.91C161.371 338.865 161.02 346.769 168.896 351.955C169.228 352.177 169.579 352.39 169.949 352.602C178.877 357.77 193.363 357.77 202.291 352.602C211.219 347.435 211.228 339.068 202.291 333.901C201.931 333.688 201.552 333.485 201.165 333.291C192.181 328.742 178.507 328.946 169.939 333.901V333.91Z" fill="black"/>
<path d="M170.66 334.318C162.12 339.254 162.12 347.26 170.66 352.187C179.2 357.124 193.04 357.124 201.581 352.187C210.121 347.251 210.121 339.245 201.581 334.318C193.04 329.381 179.2 329.381 170.66 334.318Z" fill="#EF6E0B"/>
<path opacity="0.5" d="M170.66 334.318C162.12 339.254 162.12 347.26 170.66 352.187C179.2 357.124 193.04 357.124 201.581 352.187C210.121 347.251 210.121 339.245 201.581 334.318C193.04 329.381 179.2 329.381 170.66 334.318Z" fill="black"/>
<path d="M170.66 337.839C179.2 332.903 193.04 332.903 201.58 337.839C205.07 339.854 207.129 342.387 207.766 345.013C207.129 347.638 205.07 350.171 201.58 352.187C193.04 357.123 179.2 357.123 170.66 352.187C167.17 350.171 165.111 347.638 164.474 345.013C165.111 342.387 167.17 339.854 170.66 337.839Z" fill="#EF6E0B"/>
<path opacity="0.35" d="M170.66 337.839C179.2 332.903 193.04 332.903 201.58 337.839C205.07 339.854 207.129 342.387 207.766 345.013C207.129 347.638 205.07 350.171 201.58 352.187C193.04 357.123 179.2 357.123 170.66 352.187C167.17 350.171 165.111 347.638 164.474 345.013C165.111 342.387 167.17 339.854 170.66 337.839Z" fill="black"/>
<path d="M199.891 347.065C199.891 346.64 199.891 344.902 199.891 344.449C199.891 343.376 199.153 342.341 197.555 341.407C197.537 341.398 197.518 341.38 197.5 341.37C194.564 339.669 191.526 339.891 188.83 340.575C188.83 340.575 188.812 340.575 188.803 340.575C187.658 340.862 186.559 341.241 185.571 341.583C184.195 342.064 183.069 342.452 182.1 342.655C181.499 342.785 180.955 342.84 180.447 342.812C179.967 342.785 179.514 342.665 179.08 342.452C179.117 342.424 179.154 342.406 179.191 342.378C179.302 342.304 179.413 342.239 179.533 342.165C179.837 341.99 180.142 341.833 180.447 341.712C182.146 340.991 183.789 341.028 185.303 341.601L188.11 338.773V336.175C185.617 335.324 183.032 335.241 180.447 335.898C179.634 336.101 178.822 336.388 178.009 336.739L175.203 335.121L171.86 337.053V339.651L173.005 340.316C172.682 340.825 172.516 341.333 172.516 341.833C172.516 342.267 172.516 343.987 172.516 344.421C172.516 345.493 173.282 346.529 174.898 347.462C176.458 348.359 178.009 348.738 179.514 348.794C179.819 348.803 180.133 348.794 180.438 348.794C182.183 348.71 183.863 348.239 185.396 347.721C185.728 347.61 186.042 347.499 186.365 347.389L183.54 350.217V352.815C187.519 354.414 191.415 353.656 194.351 352.344L197.121 353.943L200.464 352.011V349.413L199.319 348.747C199.697 348.184 199.891 347.62 199.882 347.056L199.891 347.065ZM192.837 346.843C192.579 346.991 192.32 347.12 192.062 347.231C190.077 348.082 188.027 347.906 186.596 347.315C189.218 346.39 191.406 345.577 193.271 346.575C193.142 346.667 193.003 346.76 192.846 346.843H192.837Z" fill="#EF6E0B"/>
<path d="M188.83 340.575C188.83 340.575 188.812 340.575 188.803 340.575C187.658 340.862 186.559 341.241 185.571 341.583C184.195 342.064 183.069 342.452 182.1 342.655C181.499 342.785 180.955 342.849 180.447 342.812C179.884 342.776 179.357 342.628 178.859 342.341C177.779 341.722 177.622 340.806 179.191 339.78C179.302 339.706 179.413 339.642 179.533 339.568C179.837 339.392 180.142 339.235 180.447 339.115C182.146 338.394 183.789 338.431 185.303 339.004L188.11 336.175C185.617 335.324 183.032 335.241 180.447 335.898C179.634 336.101 178.822 336.388 178.009 336.739L175.203 335.121L171.86 337.053L174.63 338.652C174.63 338.652 174.63 338.652 174.602 338.671C171.786 340.806 171.731 343.025 174.898 344.856C176.458 345.752 178.009 346.131 179.514 346.187C179.819 346.196 180.133 346.187 180.438 346.187C182.183 346.104 183.863 345.632 185.396 345.114C188.609 344.042 191.203 342.776 193.373 344.024C194.822 344.865 194.416 345.919 192.828 346.834C192.57 346.982 192.311 347.111 192.052 347.222C190.021 348.091 187.916 347.888 186.485 347.259L183.549 350.208C187.528 351.807 191.425 351.049 194.361 349.737L197.131 351.336L200.473 349.404L197.703 347.805C200.482 345.651 200.805 343.302 197.555 341.398C197.537 341.389 197.518 341.37 197.5 341.361C194.564 339.66 191.526 339.882 188.83 340.566V340.575Z" fill="#EF6E0B"/>
<g opacity="0.3">
<path d="M188.83 340.575C188.83 340.575 188.812 340.575 188.803 340.575C187.658 340.862 186.559 341.241 185.571 341.583C184.195 342.064 183.069 342.452 182.1 342.655C181.499 342.785 180.955 342.849 180.447 342.812C179.884 342.776 179.357 342.628 178.859 342.341C177.779 341.722 177.622 340.806 179.191 339.78C179.302 339.706 179.413 339.642 179.533 339.568C179.837 339.392 180.142 339.235 180.447 339.115C182.146 338.394 183.789 338.431 185.303 339.004L188.11 336.175C185.617 335.324 183.032 335.241 180.447 335.898C179.634 336.101 178.822 336.388 178.009 336.739L175.203 335.121L171.86 337.053L174.63 338.652C174.63 338.652 174.63 338.652 174.602 338.671C171.786 340.806 171.731 343.025 174.898 344.856C176.458 345.752 178.009 346.131 179.514 346.187C179.819 346.196 180.133 346.187 180.438 346.187C182.183 346.104 183.863 345.632 185.396 345.114C188.609 344.042 191.203 342.776 193.373 344.024C194.822 344.865 194.416 345.919 192.828 346.834C192.57 346.982 192.311 347.111 192.052 347.222C190.021 348.091 187.916 347.888 186.485 347.259L183.549 350.208C187.528 351.807 191.425 351.049 194.361 349.737L197.131 351.336L200.473 349.404L197.703 347.805C200.482 345.651 200.805 343.302 197.555 341.398C197.537 341.389 197.518 341.37 197.5 341.361C194.564 339.66 191.526 339.882 188.83 340.566V340.575Z" fill="white"/>
</g>
<path opacity="0.45" d="M171.86 337.053L175.24 335.519L178.009 336.739L175.203 335.121L171.86 337.053Z" fill="#F5F5F5"/>
<path opacity="0.45" d="M180.059 336.01C181.859 335.621 184.777 335.51 187.251 336.25L185.312 339.014L188.119 336.185C185.137 335.233 182.496 335.298 180.068 336.01H180.059Z" fill="#F5F5F5"/>
<path opacity="0.45" d="M197.5 341.37C197.5 341.37 197.537 341.388 197.555 341.407C200.805 343.311 200.482 345.659 197.703 347.813C200.168 345.123 199.725 343.246 197.047 341.702C194.379 340.159 190.954 340.177 188.83 340.575C191.535 339.891 194.564 339.669 197.5 341.37Z" fill="#F5F5F5"/>
<path opacity="0.45" d="M197.703 347.814L199.827 349.451L197.131 351.346L200.473 349.414L197.703 347.814Z" fill="#F5F5F5"/>
<path opacity="0.45" d="M192.062 347.23C189.126 348.626 186.735 347.693 186.735 347.693L183.559 350.216L186.495 347.267C187.926 347.887 190.031 348.099 192.062 347.23Z" fill="#F5F5F5"/>
<path opacity="0.45" d="M182.09 342.664C180.826 343.163 179.007 343.08 178.083 342.285C177.114 341.453 177.733 340.556 179.182 339.789C177.622 340.815 177.769 341.73 178.85 342.35C179.358 342.646 179.875 342.794 180.438 342.821C180.946 342.849 181.481 342.794 182.09 342.664Z" fill="#F5F5F5"/>
<path opacity="0.45" d="M174.603 338.68C174.362 338.892 172.35 340.769 173.245 342.646C174.187 344.652 177.142 345.937 179.524 346.195C178.009 346.14 176.468 345.77 174.907 344.864C171.74 343.034 171.805 340.815 174.612 338.68H174.603Z" fill="#F5F5F5"/>
<path d="M209.852 332.154C208.273 329.483 205.642 326.977 201.967 324.851C189.069 317.391 168.157 317.391 155.259 324.851C151.575 326.977 148.953 329.492 147.374 332.154H145.592V338.912H145.619C145.86 343.608 149.063 348.267 155.268 351.854C168.166 359.315 189.078 359.315 201.976 351.854C208.181 348.267 211.412 343.608 211.652 338.912V332.154H209.871H209.852Z" fill="#EF6E0B"/>
<path opacity="0.25" d="M209.852 332.154C208.273 329.483 205.642 326.977 201.967 324.851C189.069 317.391 168.157 317.391 155.259 324.851C151.575 326.977 148.953 329.492 147.374 332.154H145.592V338.912H145.619C145.86 343.608 149.063 348.267 155.268 351.854C168.166 359.315 189.078 359.315 201.976 351.854C208.181 348.267 211.412 343.608 211.652 338.912V332.154H209.871H209.852Z" fill="black"/>
<path opacity="0.1" d="M178.609 319.258C170.161 319.258 161.703 321.125 155.25 324.851C151.566 326.977 148.944 329.491 147.365 332.154H145.583V338.912H145.611C145.851 343.608 149.055 348.267 155.259 351.854C161.713 355.579 170.161 357.447 178.618 357.447V319.267L178.609 319.258Z" fill="black"/>
<path opacity="0.1" d="M160.568 322.355C158.684 323.067 156.902 323.89 155.25 324.851C151.566 326.978 148.944 329.492 147.365 332.155H145.583V338.912H145.611C145.851 343.609 149.055 348.268 155.259 351.855C156.912 352.807 158.694 353.639 160.577 354.351V322.365L160.568 322.355Z" fill="black"/>
<path opacity="0.5" d="M196.65 322.355C198.533 323.067 200.315 323.89 201.968 324.851C205.652 326.978 208.274 329.492 209.853 332.155H211.635V338.912C211.395 343.609 208.163 348.268 201.959 351.855C200.306 352.807 198.524 353.639 196.641 354.351V322.365L196.65 322.355Z" fill="#EF6E0B"/>
<path d="M155.26 318.657C142.361 326.117 142.361 338.2 155.26 345.66C166.542 352.187 183.964 353 196.779 348.11C196.946 348.045 197.121 347.98 197.287 347.906C198.931 347.25 200.491 346.501 201.959 345.66C212.715 339.438 214.506 330 207.314 322.715C205.883 321.264 204.101 319.895 201.959 318.666C189.061 311.215 168.149 311.206 155.25 318.666L155.26 318.657Z" fill="#EF6E0B"/>
<path opacity="0.2" d="M155.26 318.657C142.361 326.117 142.361 338.2 155.26 345.66C166.542 352.187 183.964 353 196.779 348.11C196.946 348.045 197.121 347.98 197.287 347.906C198.931 347.25 200.491 346.501 201.959 345.66C212.715 339.438 214.506 330 207.314 322.715C205.883 321.264 204.101 319.895 201.959 318.666C189.061 311.215 168.149 311.206 155.25 318.666L155.26 318.657Z" fill="black"/>
<path opacity="0.5" d="M207.323 322.715C207.461 322.872 211.976 327.633 210.776 334.492C209.631 341.056 200.454 346.575 197.296 347.906C198.939 347.25 200.5 346.501 201.968 345.66C212.724 339.438 214.515 330 207.323 322.715Z" fill="#F5F5F5"/>
<path opacity="0.5" d="M149.895 341.601C149.757 341.444 145.242 336.683 146.442 329.824C147.587 323.26 156.764 317.741 159.922 316.41C158.278 317.067 156.718 317.815 155.25 318.657C144.494 324.878 142.712 334.317 149.895 341.601Z" fill="#F5F5F5"/>
<path d="M178.618 349.876C195.573 349.876 209.317 341.929 209.317 332.126C209.317 322.324 195.573 314.377 178.618 314.377C161.663 314.377 147.919 322.324 147.919 332.126C147.919 341.929 161.663 349.876 178.618 349.876Z" fill="#EF6E0B"/>
<path opacity="0.4" d="M178.618 349.876C195.573 349.876 209.317 341.929 209.317 332.126C209.317 322.324 195.573 314.377 178.618 314.377C161.663 314.377 147.919 322.324 147.919 332.126C147.919 341.929 161.663 349.876 178.618 349.876Z" fill="white"/>
<path opacity="0.2" d="M149.313 337.433C146.848 332.866 147.652 327.828 151.723 323.557C152.48 322.771 153.348 322.004 154.327 321.273C155.084 320.7 155.915 320.155 156.81 319.637C157.3 319.351 157.808 319.073 158.325 318.814C157.051 320.913 157.512 323.169 164.751 323.594C178.905 324.426 160.965 337.96 160.965 337.96C160.965 337.96 151.843 333.55 149.313 337.433Z" fill="white"/>
<path opacity="0.5" d="M150.772 333.68C148.649 333.439 147.596 331.258 148.418 328.799C149.24 326.34 151.631 324.537 153.755 324.777C155.878 325.018 156.931 327.199 156.109 329.658C155.287 332.117 152.896 333.92 150.772 333.68Z" fill="white"/>
<path d="M173.152 344.966C173.845 339.706 196.816 325.137 196.816 325.137C196.816 325.137 201.913 323.094 200.223 319.525C201.109 320.034 201.922 320.561 202.679 321.115C203.214 321.504 203.704 321.892 204.175 322.299C211.016 328.224 211.025 336.018 204.175 341.953C203.713 342.359 203.214 342.748 202.688 343.136C201.986 343.653 201.229 344.143 200.408 344.615C199.632 345.068 198.81 345.493 197.97 345.891C197.296 346.205 196.604 346.51 195.902 346.787C195.2 347.065 194.48 347.324 193.751 347.564C191.572 348.285 189.264 348.83 186.9 349.209C186.392 349.293 185.875 349.367 185.358 349.431C183.105 349.718 180.806 349.866 178.507 349.866C175.682 349.866 172.866 349.635 170.124 349.172C170.124 349.172 173.817 348.414 173.162 344.957L173.152 344.966Z" fill="#EF6E0B"/>
<path opacity="0.3" d="M173.152 344.966C173.845 339.706 196.816 325.137 196.816 325.137C196.816 325.137 201.913 323.094 200.223 319.525C201.109 320.034 201.922 320.561 202.679 321.115C203.214 321.504 203.704 321.892 204.175 322.299C211.016 328.224 211.025 336.018 204.175 341.953C203.713 342.359 203.214 342.748 202.688 343.136C201.986 343.653 201.229 344.143 200.408 344.615C199.632 345.068 198.81 345.493 197.97 345.891C197.296 346.205 196.604 346.51 195.902 346.787C195.2 347.065 194.48 347.324 193.751 347.564C191.572 348.285 189.264 348.83 186.9 349.209C186.392 349.293 185.875 349.367 185.358 349.431C183.105 349.718 180.806 349.866 178.507 349.866C175.682 349.866 172.866 349.635 170.124 349.172C170.124 349.172 173.817 348.414 173.162 344.957L173.152 344.966Z" fill="white"/>
<path d="M194.803 322.781C203.371 327.736 203.722 335.64 195.847 340.826C195.514 341.048 195.163 341.261 194.794 341.473C185.866 346.641 171.38 346.641 162.452 341.473C153.523 336.306 153.514 327.94 162.452 322.772C162.812 322.559 163.19 322.356 163.578 322.162C172.561 317.613 186.235 317.817 194.803 322.772V322.781Z" fill="#EF6E0B"/>
<path opacity="0.2" d="M194.803 322.781C203.371 327.736 203.722 335.64 195.847 340.826C195.514 341.048 195.163 341.261 194.794 341.473C185.866 346.641 171.38 346.641 162.452 341.473C153.523 336.306 153.514 327.94 162.452 322.772C162.812 322.559 163.19 322.356 163.578 322.162C172.561 317.613 186.235 317.817 194.803 322.772V322.781Z" fill="black"/>
<path d="M194.084 323.187C202.624 328.123 202.624 336.129 194.084 341.056C185.543 345.993 171.703 345.993 163.163 341.056C154.623 336.12 154.623 328.123 163.163 323.187C171.703 318.25 185.543 318.25 194.084 323.187Z" fill="#EF6E0B"/>
<path opacity="0.5" d="M194.084 323.187C202.624 328.123 202.624 336.129 194.084 341.056C185.543 345.993 171.703 345.993 163.163 341.056C154.623 336.12 154.623 328.123 163.163 323.187C171.703 318.25 185.543 318.25 194.084 323.187Z" fill="black"/>
<path d="M194.083 326.718C185.543 321.781 171.703 321.781 163.163 326.718C159.673 328.733 157.614 331.266 156.977 333.892C157.614 336.517 159.673 339.05 163.163 341.065C171.703 346.002 185.543 346.002 194.083 341.065C197.573 339.05 199.632 336.517 200.269 333.892C199.632 331.266 197.573 328.733 194.083 326.718Z" fill="#EF6E0B"/>
<path opacity="0.35" d="M194.083 326.718C185.543 321.781 171.703 321.781 163.163 326.718C159.673 328.733 157.614 331.266 156.977 333.892C157.614 336.517 159.673 339.05 163.163 341.065C171.703 346.002 185.543 346.002 194.083 341.065C197.573 339.05 199.632 336.517 200.269 333.892C199.632 331.266 197.573 328.733 194.083 326.718Z" fill="black"/>
<path d="M182.519 324.598L183.785 325.928L179.735 328.068C180.376 328.083 181.008 328.189 181.628 328.391L184.622 326.81L185.888 328.14L183.462 329.421L183.659 329.63C184.432 330.443 184.721 331.338 184.53 332.324C184.338 333.306 183.685 334.312 182.569 335.331L191.16 336.883L186.199 339.503L178.461 338.081L172.845 341.048L170.864 338.967L176.167 336.165C177.668 335.372 178.618 334.604 179.015 333.865C179.412 333.126 179.343 332.462 178.816 331.876L167.865 337.661L166.599 336.331L176.892 330.891C175.585 330.697 174.009 331.09 172.159 332.067C172.129 332.085 172.095 332.101 172.061 332.119L165.76 335.449L164.494 334.119L182.519 324.598Z" fill="#E49F40"/>
<path d="M182.751 323.574L184.017 324.904L179.966 327.045C180.607 327.06 181.239 327.165 181.86 327.368L184.853 325.787L186.119 327.117L183.694 328.398L183.891 328.606C184.663 329.419 184.952 330.314 184.761 331.3C184.569 332.283 183.916 333.288 182.801 334.308L191.392 335.86L186.431 338.48L178.692 337.057L173.076 340.025L171.095 337.944L176.399 335.141C177.9 334.348 178.85 333.581 179.247 332.842C179.643 332.103 179.575 331.439 179.047 330.853L168.097 336.638L166.831 335.308L177.123 329.868C175.817 329.674 174.24 330.067 172.391 331.043C172.36 331.061 172.326 331.077 172.293 331.096L165.991 334.425L164.725 333.096L182.751 323.574Z" fill="#F8FBC5"/>
<path d="M182.751 323.574L184.017 324.904L179.966 327.045C180.607 327.06 181.239 327.165 181.86 327.368L184.853 325.787L186.119 327.117L183.694 328.398L183.891 328.606C184.663 329.419 184.952 330.314 184.761 331.3C184.569 332.283 183.916 333.288 182.801 334.308L191.392 335.86L186.431 338.48L178.692 337.057L173.076 340.025L171.095 337.944L176.399 335.141C177.9 334.348 178.85 333.581 179.247 332.842C179.643 332.103 179.575 331.439 179.047 330.853L168.097 336.638L166.831 335.308L177.123 329.868C175.817 329.674 174.24 330.067 172.391 331.043C172.36 331.061 172.326 331.077 172.293 331.096L165.991 334.425L164.725 333.096L182.751 323.574Z" fill="#F4D551"/>
<path d="M182.751 323.574L184.017 324.904L179.966 327.045C180.607 327.06 181.239 327.165 181.86 327.368L184.853 325.787L186.119 327.117L183.694 328.398L183.891 328.606C184.663 329.419 184.952 330.314 184.761 331.3C184.569 332.283 183.916 333.288 182.801 334.308L191.392 335.86L186.431 338.48L178.692 337.057L173.076 340.025L171.095 337.944L176.399 335.141C177.9 334.348 178.85 333.581 179.247 332.842C179.643 332.103 179.575 331.439 179.047 330.853L168.097 336.638L166.831 335.308L177.123 329.868C175.817 329.674 174.24 330.067 172.391 331.043C172.36 331.061 172.326 331.077 172.293 331.096L165.991 334.425L164.725 333.096L182.751 323.574Z" fill="white"/>
<path d="M182.751 323.574L184.017 324.904L179.966 327.045C180.607 327.06 181.239 327.165 181.86 327.368L184.853 325.787L186.119 327.117L183.694 328.398L183.891 328.606C184.663 329.419 184.952 330.314 184.761 331.3C184.569 332.283 183.916 333.288 182.801 334.308L191.392 335.86L186.431 338.48L178.692 337.057L173.076 340.025L171.095 337.944L176.399 335.141C177.9 334.348 178.85 333.581 179.247 332.842C179.643 332.103 179.575 331.439 179.047 330.853L168.097 336.638L166.831 335.308L177.123 329.868C175.817 329.674 174.24 330.067 172.391 331.043C172.36 331.061 172.326 331.077 172.293 331.096L165.991 334.425L164.725 333.096L182.751 323.574Z" fill="white"/>
<path d="M149.442 328.79L150.273 322.467L151.104 328.79L162.045 329.271L151.104 329.751L150.273 336.084L149.442 329.751L138.492 329.271L149.442 328.79Z" fill="white"/>
<g opacity="0.3">
<path d="M347.356 341.64C347.31 341.64 347.263 341.631 347.217 341.603L329.343 331.268C329.259 331.222 329.204 331.129 329.204 331.027C329.204 330.926 329.259 330.843 329.343 330.787L351.695 317.873C351.778 317.826 351.889 317.826 351.972 317.873L369.847 328.208C369.93 328.254 369.985 328.347 369.985 328.448C369.985 328.55 369.93 328.633 369.847 328.689L347.494 341.603C347.494 341.603 347.402 341.64 347.356 341.64ZM330.026 331.027L347.356 341.049L369.154 328.448L351.824 318.427L330.026 331.027Z" fill="#EF6E0B"/>
</g>
<path d="M347.356 338.783V246.125L333.95 238.369V331.027L347.356 338.783Z" fill="#EF6E0B"/>
<path opacity="0.2" d="M347.356 338.783V246.125L333.95 238.369V331.027L347.356 338.783Z" fill="black"/>
<path d="M347.356 338.782L365.24 328.447V235.789L347.356 246.124V338.782Z" fill="#EF6E0B"/>
<path d="M365.24 235.79L351.834 228.043L333.95 238.369L347.356 246.125L365.24 235.79Z" fill="#EF6E0B"/>
<path opacity="0.25" d="M365.24 235.79L351.834 228.043L333.95 238.369L347.356 246.125L365.24 235.79Z" fill="white"/>
<path opacity="0.3" d="M365.24 235.789L347.181 245.755L341.318 242.473L333.95 238.368L341.189 242.704L347.116 246.254C346.978 248.269 346.941 330.591 346.968 332.607C346.996 334.668 347.098 336.72 347.365 338.782C347.633 336.72 347.726 334.668 347.753 332.607C347.781 330.656 347.744 248.399 347.615 246.448L365.249 235.789H365.24Z" fill="white"/>
<g opacity="0.3">
<path d="M313.841 361.015C313.795 361.015 313.749 361.006 313.703 360.978L295.828 350.643C295.745 350.597 295.689 350.504 295.689 350.402C295.689 350.301 295.745 350.218 295.828 350.162L318.181 337.248C318.264 337.201 318.374 337.201 318.458 337.248L336.332 347.583C336.415 347.629 336.471 347.722 336.471 347.823C336.471 347.925 336.415 348.008 336.332 348.064L313.989 360.978C313.989 360.978 313.897 361.015 313.85 361.015H313.841ZM296.511 350.402L313.841 360.424L335.64 347.823L318.31 337.802L296.511 350.402Z" fill="#EF6E0B"/>
</g>
<path d="M313.841 358.16L313.832 302.563L300.426 294.816V350.404L313.841 358.16Z" fill="#EF6E0B"/>
<path opacity="0.1" d="M313.841 358.16L313.832 302.563L300.426 294.816V350.404L313.841 358.16Z" fill="white"/>
<path d="M313.841 358.159L331.716 347.823V292.236L313.832 302.562L313.841 358.159Z" fill="#EF6E0B"/>
<path opacity="0.3" d="M313.841 358.159L331.716 347.823V292.236L313.832 302.562L313.841 358.159Z" fill="white"/>
<path d="M331.716 292.237L318.31 284.48L300.426 294.816L313.832 302.563L331.716 292.237Z" fill="#EF6E0B"/>
<path opacity="0.55" d="M331.716 292.237L318.31 284.48L300.426 294.816L313.832 302.563L331.716 292.237Z" fill="white"/>
<path opacity="0.3" d="M314.072 302.895L331.716 292.227L313.656 302.192C311.708 301.092 309.751 300.001 307.794 298.91L300.426 294.806L307.664 299.141C309.64 300.325 311.616 301.517 313.601 302.691C313.536 304.781 313.472 314.866 313.453 316.956C313.435 319.091 313.426 343.228 313.444 345.355C313.453 347.49 313.49 349.616 313.564 351.752C313.619 353.887 313.703 356.014 313.841 358.149C313.98 356.014 314.063 353.887 314.118 351.752C314.192 349.616 314.22 347.49 314.238 345.355C314.257 343.219 314.238 319.082 314.22 316.956C314.201 314.931 314.136 304.919 314.081 302.895H314.072Z" fill="white"/>
<g opacity="0.3">
<path d="M280.317 380.392C280.271 380.392 280.224 380.383 280.178 380.355L262.304 370.02C262.22 369.974 262.165 369.881 262.165 369.779C262.165 369.678 262.22 369.595 262.304 369.539L284.656 356.625C284.739 356.578 284.85 356.578 284.933 356.625L302.808 366.96C302.891 367.006 302.946 367.099 302.946 367.2C302.946 367.302 302.891 367.385 302.808 367.441L280.455 380.355C280.455 380.355 280.363 380.392 280.317 380.392ZM262.987 369.779L280.317 379.8L302.115 367.2L284.785 357.179L262.987 369.779Z" fill="#EF6E0B"/>
</g>
<path d="M280.317 377.536L280.307 358.002L266.901 350.246V369.78L280.317 377.536Z" fill="#EF6E0B"/>
<path opacity="0.45" d="M280.317 377.536L280.307 358.002L266.901 350.246V369.78L280.317 377.536Z" fill="black"/>
<path d="M280.317 377.535L298.192 367.2V347.666L280.308 358.001L280.317 377.535Z" fill="#EF6E0B"/>
<path opacity="0.3" d="M280.317 377.535L298.192 367.2V347.666L280.308 358.001L280.317 377.535Z" fill="black"/>
<path d="M298.191 347.666L284.785 339.91L266.901 350.245L280.307 358.002L298.191 347.666Z" fill="#EF6E0B"/>
<path opacity="0.15" d="M298.191 347.666L284.785 339.91L266.901 350.245L280.307 358.002L298.191 347.666Z" fill="black"/>
<path opacity="0.3" d="M298.191 347.666L280.132 357.632L274.269 354.35L266.901 350.245L274.14 354.581L280.067 358.122C279.929 359.351 279.892 372.497 279.92 373.726C279.947 374.993 280.049 376.269 280.317 377.535C280.584 376.269 280.677 374.993 280.704 373.726C280.732 372.561 280.695 359.471 280.575 358.316L298.191 347.666Z" fill="white"/>
<g opacity="0.3">
<path d="M380.88 322.263C380.834 322.263 380.788 322.254 380.742 322.226L362.867 311.891C362.784 311.845 362.729 311.752 362.729 311.651C362.729 311.549 362.784 311.466 362.867 311.41L385.22 298.496C385.303 298.449 385.414 298.449 385.497 298.496L403.371 308.831C403.454 308.877 403.51 308.97 403.51 309.071C403.51 309.173 403.454 309.256 403.371 309.312L381.019 322.226C381.019 322.226 380.926 322.263 380.88 322.263ZM363.55 311.651L380.88 321.672L402.679 309.071L385.349 299.05L363.55 311.651Z" fill="#EF6E0B"/>
</g>
<path d="M380.88 319.398V191.139L367.474 183.393V311.651L380.88 319.398Z" fill="#EF6E0B"/>
<path opacity="0.3" d="M380.88 319.398V191.139L367.474 183.393V311.651L380.88 319.398Z" fill="white"/>
<path d="M380.88 319.396L398.755 309.061L398.764 180.803L380.88 191.138V319.396Z" fill="#EF6E0B"/>
<path opacity="0.55" d="M380.88 319.396L398.755 309.061L398.764 180.803L380.88 191.138V319.396Z" fill="white"/>
<path d="M398.764 180.804L385.348 173.057L367.474 183.392L380.88 191.139L398.764 180.804Z" fill="#EF6E0B"/>
<path opacity="0.75" d="M398.764 180.804L385.348 173.057L367.474 183.392L380.88 191.139L398.764 180.804Z" fill="white"/>
<path opacity="0.3" d="M381.111 191.471L398.755 180.803L380.695 190.768C378.747 189.668 376.79 188.577 374.833 187.486L367.465 183.382L374.703 187.718C376.679 188.901 378.655 190.093 380.64 191.267C380.575 193.634 380.511 223.346 380.492 225.712C380.474 228.125 380.465 302.516 380.483 304.929C380.492 307.341 380.529 309.754 380.603 312.167C380.659 314.58 380.742 316.993 380.88 319.405C381.019 316.993 381.102 314.58 381.157 312.167C381.231 309.754 381.259 307.341 381.277 304.929C381.296 302.516 381.277 228.125 381.259 225.712C381.24 223.411 381.176 193.773 381.111 191.471Z" fill="white"/>
<path opacity="0.2" d="M187.389 217.745C191.516 214.186 196.982 210.84 203.648 207.817C211.135 204.415 220.128 201.41 226.379 197.713C234.494 192.905 237.597 187.118 237.006 181.294C236.673 177.994 234.707 174.333 227.219 171.902C225.299 171.283 222.963 170.746 220.451 170.626C216.758 170.451 213.554 171.172 210.969 171.957C197.203 176.127 191.359 182.533 186.742 188.764C182.126 194.985 176.522 198.6 166.44 204.461C162.128 206.976 157.502 209.435 153.43 211.977C153.394 211.995 153.366 212.014 153.329 212.042C151.27 213.336 149.008 214.528 147.383 215.915C144.798 218.124 142.527 220.408 141.594 222.821C140.662 225.233 141.123 227.803 143.875 230.207C144.585 230.826 145.5 231.455 147.078 231.88C148.408 232.232 150.07 232.398 151.685 232.453C154.963 232.564 158.13 232.25 160.807 231.732C163.485 231.205 165.719 230.475 167.778 229.708C176.762 226.352 182.477 222.016 187.407 217.764L187.389 217.745Z" fill="black"/>
<path d="M145.186 95.0532C144.429 97.0593 142.231 101.312 142.37 101.848C142.748 103.318 142.822 104.215 142.49 105.934C142.296 106.96 133.442 110.445 133.442 110.445L133.229 109.04C133.082 108.097 133.202 107.127 133.58 106.248C134.605 103.854 136.701 98.6031 137.356 94.3691L145.186 95.044V95.0532Z" fill="#FFA8A7"/>
<path d="M142.638 105.037L133.267 109.253L133.451 110.445C133.451 110.445 142.306 106.96 142.499 105.934C142.564 105.601 142.601 105.314 142.638 105.037Z" fill="#F28F8F"/>
<path d="M114.21 123.074L111.394 152.046C111.255 153.451 112.169 154.357 113.314 155.189L116.186 157.251C116.98 157.824 117.432 158.027 118.512 157.953C118.983 157.926 119.805 157.621 120.202 157.445C120.23 157.445 120.248 157.426 120.267 157.417L120.442 157.334L153.292 142.386C155.693 141.295 157.327 139.002 157.585 136.377L160.152 109.993C160.208 109.392 159.857 108.615 159.367 108.264L154.465 104.761C153.975 104.409 153.126 104.326 152.581 104.576L115.318 121.53C115.041 121.65 114.782 121.891 114.579 122.168C114.376 122.445 114.237 122.769 114.21 123.074Z" fill="#37474F"/>
<path d="M114.21 123.074L111.394 152.047C111.255 153.452 112.169 154.358 113.314 155.19L116.186 157.251C116.98 157.825 117.432 158.028 118.512 157.954C118.983 157.926 119.805 157.621 120.202 157.445C118.937 157.88 118.041 157.159 118.18 155.726L120.83 128.427C120.876 127.974 121.079 127.484 121.384 127.059L114.57 122.178C114.367 122.455 114.228 122.779 114.201 123.084L114.21 123.074Z" fill="#263238"/>
<path d="M120.839 128.426C120.931 127.52 121.679 126.466 122.51 126.087L157.733 110.057C159.127 109.419 160.143 110.15 159.995 111.675L157.595 136.376C157.336 139.002 155.702 141.294 153.301 142.385L120.451 157.333C119.057 157.971 118.041 157.241 118.189 155.716L120.848 128.417L120.839 128.426Z" fill="#455A64"/>
<path d="M158.638 111.223C158.638 111.223 158.629 111.371 158.61 111.546L156.21 136.247C156.006 138.374 154.668 140.25 152.72 141.129L119.869 156.077C119.712 156.151 119.601 156.169 119.537 156.179C119.555 156.142 119.537 156.021 119.555 155.855L122.205 128.556C122.251 128.085 122.639 127.539 123.073 127.345L158.296 111.324C158.462 111.25 158.573 111.223 158.638 111.223ZM158.675 109.836C158.388 109.836 158.075 109.91 157.733 110.067L122.51 126.097C121.679 126.476 120.931 127.53 120.839 128.436L118.189 155.735C118.078 156.881 118.632 157.584 119.509 157.584C119.795 157.584 120.109 157.51 120.451 157.353L153.301 142.404C155.702 141.313 157.336 139.021 157.594 136.395L159.995 111.694C160.106 110.548 159.552 109.845 158.675 109.845V109.836Z" fill="#37474F"/>
<path d="M156.053 105.898L118.706 123.084C117.635 123.574 116.906 124.609 116.786 125.783L113.887 155.597L114.395 155.957L117.321 125.83C117.414 124.85 118.032 123.981 118.928 123.574L156.561 106.259L156.053 105.898Z" fill="#EF6E0B"/>
<path opacity="0.2" d="M117.386 124.184C117.054 124.646 116.841 125.2 116.786 125.792L113.887 155.606L114.395 155.966L117.321 125.838C117.367 125.348 117.543 124.886 117.82 124.498L117.377 124.184H117.386Z" fill="black"/>
<path opacity="0.2" d="M117.829 124.499C118.106 124.111 118.485 123.787 118.937 123.584L156.57 106.269L156.062 105.908L118.716 123.094C118.18 123.343 117.728 123.722 117.396 124.185" fill="black"/>
<path d="M143.136 108.383L142.702 112.867L144.355 114.05L144.936 108.087C144.964 107.782 144.761 107.634 144.484 107.764L143.136 108.374V108.383Z" fill="#EF6E0B"/>
<path opacity="0.4" d="M143.136 108.383L142.702 112.867L144.355 114.05L144.936 108.087C144.964 107.782 144.761 107.634 144.484 107.764L143.136 108.374V108.383Z" fill="black"/>
<path d="M130.395 111.61L129.684 118.876L131.262 120.013L132.453 119.468L133.035 113.514C133.063 113.209 133.321 112.858 133.598 112.728L142.61 108.624L144.484 107.773C144.761 107.644 144.964 107.792 144.936 108.097L144.355 114.05L145.546 113.505L146.247 106.248C146.247 106.248 146.247 106.183 146.247 106.156C146.247 105.869 146.072 105.527 145.841 105.37L145.167 104.889C144.918 104.713 144.493 104.667 144.207 104.797L130.939 110.833C130.662 110.963 130.413 111.314 130.376 111.619L130.395 111.61Z" fill="#EF6E0B"/>
<path opacity="0.2" d="M131.973 112.746L131.271 120.012L132.463 119.467L133.044 113.513C133.072 113.208 133.33 112.857 133.607 112.728L142.619 108.623L144.493 107.773C144.77 107.643 144.973 107.791 144.945 108.096L144.364 114.05L145.555 113.504L146.256 106.247C146.256 106.247 146.256 106.183 146.256 106.155C146.238 105.914 146.053 105.813 145.804 105.924L132.536 111.96C132.259 112.09 132.001 112.441 131.973 112.746Z" fill="black"/>
<path d="M141.197 108.042C141.391 108.042 141.576 108.107 141.733 108.227C141.973 107.82 142.444 107.561 142.914 107.571C143.118 107.571 143.367 107.654 143.413 107.857C143.431 107.922 143.422 107.996 143.413 108.061C143.348 108.726 143.256 109.392 143.136 110.057C143.053 110.538 142.933 111.046 142.564 111.361C142.268 111.62 141.825 111.703 141.446 111.573C141.308 111.888 141.04 112.137 140.717 112.267C140.643 112.294 139.711 112.378 139.766 112.267C139.415 112.923 138.64 113.598 137.643 113.395C137.643 113.395 137.393 114.116 136.082 113.958C134.771 113.801 134.189 112.35 134.189 112.35C134.263 111.943 134.402 111.786 134.854 111.601C135.076 111.518 135.316 111.416 135.537 111.305C135.851 111.148 136.045 110.788 136.267 110.529C136.498 110.261 136.756 110.011 137.089 109.882C137.421 109.752 137.818 109.78 138.076 110.02C138.104 109.752 138.289 109.521 138.473 109.318C138.64 109.142 138.852 108.966 139.111 108.939C139.184 108.939 139.785 109.031 139.711 109.198C139.886 108.809 140.145 108.43 140.505 108.218C140.708 108.097 140.948 108.033 141.179 108.042H141.197Z" fill="#FFA8A7"/>
<path d="M146.506 94.3789C145.934 97.032 144.494 99.4171 145.131 101.645C145.565 103.152 145.685 102.995 145.509 104.529C145.444 105.102 145.214 105.999 145.02 106.535C144.9 106.859 144.789 107.173 144.678 107.497C144.558 107.83 144.429 108.172 144.253 108.486C144.023 108.883 143.718 109.235 143.423 109.586C142.905 110.205 142.361 110.816 141.696 111.269C141.659 111.296 141.622 111.315 141.585 111.324C141.419 111.379 141.234 111.306 141.114 111.176C140.533 110.538 140.976 109.614 141.281 108.967C141.622 108.246 142.019 107.525 142.001 106.711C142.001 106.609 142.001 106.286 142.001 105.787L141.179 105.583C141.179 105.583 138.529 104.945 138.483 103.66C138.437 102.375 139.452 101.146 140.219 99.639C141.004 98.1044 141.299 97.1522 142.084 93.2695L146.515 94.3789H146.506Z" fill="#FFA8A7"/>
<path d="M144.254 108.495C143.654 109.475 142.878 110.353 142.01 111.121C141.862 111.231 141.742 111.426 141.475 111.444C140.237 111.213 140.819 109.577 141.235 108.856C141.576 108.172 141.964 107.497 141.982 106.711C142.038 107.487 141.687 108.227 141.373 108.92C141.05 109.586 140.468 110.954 141.475 111.259C142.527 110.631 143.469 109.466 144.254 108.495Z" fill="#F28F8F"/>
<path d="M141.779 105.546C141.456 105.38 141.105 105.26 140.8 105.065C140.56 104.908 140.367 104.696 140.21 104.465C139.822 103.901 139.48 103.161 139.591 102.458C139.591 102.412 139.554 102.338 139.526 102.412C139.24 103.198 139.462 104.085 139.886 104.788C140.08 105.112 140.376 105.38 140.699 105.574C140.865 105.676 141.041 105.759 141.234 105.805C141.447 105.86 141.604 105.86 141.807 105.768C141.881 105.731 141.853 105.583 141.788 105.546H141.779Z" fill="#F28F8F"/>
<path d="M162.239 41.1574C156.514 40.7136 151.944 41.8507 148.99 49.385C145.647 57.8991 142.36 64.4627 140.708 70.6565C139.055 76.8504 136.608 96.4394 136.608 96.4394C136.608 96.4394 140.929 100.211 145.693 98.4917L152.895 76.231L162.248 58.2135V41.1666L162.239 41.1574Z" fill="#E6E6E6"/>
<path d="M227.209 181.709C227.606 181.431 228.197 182.457 228.206 183.105C228.243 184.953 227.006 187.662 224.31 190.066C221.614 192.469 215.141 195.011 213.276 195.964C211.411 196.916 208.78 199.597 207.127 200.9C204.118 203.285 201.338 203.627 199.658 203.174C199.003 202.999 198.615 202.398 198.338 201.862C197.664 200.586 197.636 200.272 197.784 200.198L227.209 181.709Z" fill="#37474F"/>
<path d="M196.103 196.324C196.519 197.702 197.47 199.874 198.347 201.03C199.252 201.751 200.572 201.714 201.532 201.511C204.071 200.984 206.121 199.662 208.217 197.831C209.473 196.731 210.848 195.529 212.612 194.67C214.551 193.717 218.936 191.822 220.847 190.796C222.463 189.918 224.337 188.448 225.436 186.932C226.359 185.656 227.532 183.317 227.421 182.116C226.572 179.62 225.584 178.399 223.857 178.362C222.029 178.325 219.97 179.259 217.136 180.572C216.286 180.969 215.234 181.496 214.772 181.69C213.027 182.43 211.421 183.16 210.128 183.78C209.02 184.307 207.931 184.815 206.675 184.824C206.075 184.824 205.595 184.76 205.115 184.408C204.533 183.974 204.071 183.123 203.536 183.364C203.536 183.364 195.106 190.149 194.395 190.648C193.574 191.221 194.839 192.146 196.103 196.334V196.324Z" fill="#455A64"/>
<path d="M215.437 181.201C215.806 181.229 216.296 181.45 216.582 181.635C216.97 181.885 217.293 182.144 217.616 182.477C218.004 182.883 217.468 183.309 216.942 182.883C216.573 182.597 216.185 182.264 215.557 181.959C215.253 181.811 214.717 181.709 214.431 181.829C214.218 181.922 213.932 182.042 213.932 182.042C213.858 181.617 214.966 181.155 215.456 181.192L215.437 181.201Z" fill="#FAFAFA"/>
<path d="M210.968 183.058C211.282 182.836 211.605 182.772 211.993 182.836C212.454 182.91 212.851 183.16 213.202 183.456C213.488 183.696 214.144 184.352 214.356 184.658C214.559 184.944 213.839 185.332 213.571 185.046C213.313 184.759 212.814 184.242 212.491 183.973C212.288 183.807 211.476 183.215 210.931 183.41L210.7 183.52C210.635 183.419 210.737 183.262 210.829 183.188C210.876 183.151 210.922 183.114 210.968 183.077V183.058Z" fill="#FAFAFA"/>
<path d="M208.457 184.362C208.743 184.316 208.909 184.26 209.177 184.371C209.436 184.482 209.777 184.695 209.971 184.898C210.516 185.444 210.7 185.74 211.033 186.285C211.264 186.673 210.488 186.969 210.322 186.72C209.786 185.934 209.482 185.388 208.752 185C208.152 184.686 207.774 184.695 207.774 184.695C207.755 184.612 207.857 184.547 207.931 184.519C208.051 184.473 208.346 184.381 208.466 184.362H208.457Z" fill="#FAFAFA"/>
<path d="M188.598 180.933C188.598 180.933 193.334 189.318 194.636 191.185C195.051 191.786 196.39 191.37 197.156 191.296C197.923 191.222 199.132 191.102 199.954 191.333C202.382 192.017 203.767 191.722 203.195 188.467C203.075 187.802 203.296 187.358 204.09 187.09C204.681 186.887 205.355 186.822 205.835 186.415C205.891 186.314 205.771 186.212 205.669 186.166C204.884 185.787 204.45 185.509 203.906 184.326C202.225 180.665 200.683 173.131 200.683 173.131L188.616 180.933H188.598Z" fill="#FFA8A7"/>
<path d="M152.747 199.679C154.196 197.359 154.981 192.885 158.166 183.807L169.993 192.478L163.217 205.707C162.829 206.372 162.82 207.371 162.681 207.565C161.102 209.839 152.737 199.679 152.737 199.679H152.747Z" fill="#FFA8A7"/>
<path d="M148.361 204.625C148.379 204.487 148.306 203.396 148.343 203.266C148.647 202.092 149.377 201.76 150.309 201.103C151.463 200.29 152.59 199.31 152.885 198.894C153.199 198.459 153.254 198.237 153.744 198.034C154.575 197.701 155.904 197.674 157.538 198.533C160.225 199.948 161.038 201.639 160.89 203.488C160.77 204.893 160.659 206.761 161.896 207.593C162.413 207.944 163.226 205.698 163.226 205.698C163.992 206.973 162.921 208.748 162.358 211.337C161.97 213.112 162.072 213.888 162.284 215.691C162.552 217.965 162.866 217.956 164.075 218.113C165.119 218.252 168.064 218.048 169.855 219.306C172.329 221.034 171.665 223.336 171.665 223.336C171.341 224.214 168.655 228.458 158.84 226.868C155.987 226.405 150.004 221.922 150.097 221.506C150.18 221.118 150.088 220.609 150.078 220.221C150.041 219.213 150.004 218.215 149.958 217.207C149.921 216.292 150.014 215.229 149.792 214.332C149.598 213.537 149.506 212.779 149.423 211.956C149.238 209.941 149.044 207.916 148.86 205.901C148.804 205.319 148.296 205.189 148.37 204.616L148.361 204.625Z" fill="#455A64"/>
<path d="M147.133 204.228C146.164 205.162 146.755 207.889 148.057 211.152C148.629 212.604 149.709 215.1 149.386 217.753C149.072 220.406 149.017 221.663 149.7 222.902C150.771 224.843 156.477 227.339 159.838 228.116C159.838 228.116 156.754 224.242 156.422 218.381C156.08 212.53 155.637 208.749 152.959 206.16C149.58 202.878 147.133 204.228 147.133 204.228Z" fill="#263238"/>
<path d="M171.665 223.354C171.665 223.354 169.699 227.052 162.1 226.932C159.109 226.886 157.511 225.425 157.438 220.877C157.345 215.395 156.911 209.848 155.139 207.13C153.366 204.403 150.541 203.09 148.353 203.284C147.974 203.349 147.494 203.71 147.134 204.246C147.134 204.246 149.322 203.525 152.738 206.354C155.259 208.443 155.933 212.815 155.896 218.233C155.877 220.572 155.739 223.216 156.422 224.981C157.05 226.618 158.444 227.736 160.05 228.18C164.178 229.345 169.837 227.431 171.259 225.684C172.081 224.519 171.665 223.354 171.665 223.354Z" fill="#37474F"/>
<path d="M162.534 217.133C162.534 217.133 163.088 217.521 163.153 218.039C163.218 218.556 163.033 219.749 161.953 220.424C161.491 220.71 161.094 220.609 161.823 219.647C162.553 218.686 162.534 217.133 162.534 217.133Z" fill="#FAFAFA"/>
<path d="M162.128 214.295C162.128 214.295 162.368 214.452 162.433 215.21C162.47 215.617 161.833 217.262 161.029 217.66C160.226 218.048 160.66 217.133 161.011 216.68C161.389 216.181 162.063 215.053 162.128 214.295Z" fill="#FAFAFA"/>
<path d="M162.396 211.162C162.396 211.162 162.654 211.236 162.377 212.28C162.285 212.631 161.232 213.676 160.725 213.732C160.208 213.796 159.958 213.537 160.595 213.075C161.094 212.715 162.303 211.661 162.405 211.152L162.396 211.162Z" fill="#FAFAFA"/>
<path d="M181.785 93.9144C181.785 93.9144 186.383 99.4334 189.162 109.75C192.532 122.277 193.843 131.909 194.895 138.898C195.56 143.289 196.197 147.523 197.72 155.973C199.17 163.997 202.771 181.358 202.771 181.358C202.771 181.358 202.134 184.002 198.57 185.564C195.006 187.127 191.147 186.526 191.147 186.526C191.147 186.526 188.7 182.347 183.603 172.493C180.141 165.809 179.578 162.167 178.904 158.746C178.405 156.167 177.805 151.138 177.861 148.827L158.73 116.277C158.73 116.277 156.681 114.141 154.889 109.649C152.184 102.854 155.637 93.0547 155.637 93.0547L181.785 93.9237V93.9144Z" fill="#37474F"/>
<path d="M181.785 93.9144C181.785 93.9144 186.383 99.4334 189.162 109.75C192.532 122.277 193.843 131.909 194.895 138.898C195.56 143.289 196.197 147.523 197.72 155.973C199.17 163.997 202.771 181.358 202.771 181.358C202.771 181.358 202.134 184.002 198.57 185.564C195.006 187.127 191.147 186.526 191.147 186.526C191.147 186.526 188.7 182.347 183.603 172.493C180.141 165.809 179.578 162.167 178.904 158.746C178.405 156.167 177.805 151.138 177.861 148.827L158.73 116.277C158.73 116.277 156.681 114.141 154.889 109.649C152.184 102.854 155.637 93.0547 155.637 93.0547L181.785 93.9237V93.9144Z" fill="#37474F"/>
<path d="M194.517 136.384C193.511 129.654 192.144 120.835 189.162 109.751C188.303 106.552 187.26 103.816 186.244 101.56L161.971 101.135C160.162 105.359 158.74 110.638 162.692 117.091L163.735 124.782L177.87 148.827C177.824 151.138 178.415 156.167 178.914 158.746C179.588 162.167 180.151 165.809 183.613 172.493C183.761 172.789 183.908 173.057 184.056 173.344C185.589 171.051 187.989 167.335 188.903 165.171C190.298 161.871 191.249 155.52 192.707 147.468C193.243 144.501 193.935 140.202 194.535 136.393L194.517 136.384Z" fill="#263238"/>
<path d="M165.83 93.9139C164.63 95.1434 161.638 99.2757 161.158 105.627C160.955 108.317 161.712 113.383 164.851 117.201C165.811 131.289 168.591 158.422 168.591 158.422C164.87 162.258 163.909 164.727 161.758 171.595C160.447 175.765 156.643 188.374 155.166 193.08C164.186 193.468 165.885 201.215 165.885 201.215C165.885 201.215 176.817 183.567 182.338 173.601C186.419 166.234 186.936 164.477 188.044 160.086C189.152 155.695 189.355 151.627 190.703 142.457C192.042 133.286 194.424 120.658 195.079 111.636C195.735 102.613 195.855 93.0449 195.855 93.0449L165.83 93.9139Z" fill="#37474F"/>
<path d="M153.901 104.961C154.815 104.703 156.108 103.824 156.607 103.038C156.902 102.567 157.077 101.892 157.308 101.042C157.558 100.117 157.862 98.9617 158.444 97.6582L159.136 97.9725C158.582 99.2205 158.296 100.293 158.047 101.245C157.807 102.16 157.613 102.881 157.262 103.445C156.68 104.379 155.166 105.433 153.984 105.719C153.957 105.47 153.938 105.211 153.92 104.961H153.901Z" fill="#263238"/>
<path d="M171.969 113.031C171.775 113.031 171.609 113.012 171.48 112.985C170.372 112.744 169.513 111.995 167.805 109.804C166.503 108.14 166.633 106.939 166.854 104.951C166.937 104.221 167.704 100.329 167.75 99.3027L168.479 99.7095C168.433 100.763 167.694 104.295 167.611 105.034C167.39 107.003 167.297 107.909 168.405 109.333C169.984 111.358 170.741 112.032 171.646 112.236C172.514 112.43 176.383 111.792 177.407 111.08C177.998 110.664 178.995 105.58 179.577 101.096L180.334 101.198C180.039 103.463 178.995 110.914 177.841 111.709C176.816 112.421 173.502 113.077 171.969 113.031Z" fill="#263238"/>
<path d="M155.444 45.2424C152.868 50.1789 153.182 54.5978 153.929 61.5127C154.613 67.8914 155.093 71.848 155.684 79.7428C156.358 88.7654 155.157 94.4508 155.157 94.4508C155.157 94.4508 155.416 98.2688 166.643 101.135C186.383 106.173 195.856 100.432 195.856 100.432C195.856 100.432 196.336 89.3016 195.569 74.7415C194.711 58.4343 194.425 56.0399 193.169 52.1665C192.246 50.0218 190.491 48.0989 188.118 47.0173C186.161 46.1298 181.471 44.586 178.683 43.5136C172.201 41.0084 164.704 41.1655 164.704 41.1655C159.081 40.7865 156.782 42.6816 155.444 45.2424Z" fill="#F5F5F5"/>
<path d="M163.319 42.0528C163.735 42.0528 164.178 42.0713 164.64 42.0991H164.676H164.713C164.713 42.0991 164.806 42.0991 164.963 42.0991C166.209 42.0991 172.7 42.21 178.341 44.3917C179.467 44.8262 180.926 45.3439 182.33 45.8431C184.425 46.5919 186.586 47.3592 187.731 47.8769C189.743 48.7921 191.405 50.4838 192.301 52.5084C193.492 56.1784 193.769 58.2122 194.646 74.8061C195.311 87.3786 195.034 97.5013 194.951 99.8771C193.64 100.515 189.291 102.29 181.859 102.29C177.224 102.29 172.173 101.606 166.865 100.247C157.567 97.8803 156.247 94.9313 156.09 94.4599C156.293 93.3875 157.216 87.9333 156.598 79.6779C156.099 72.9942 155.684 69.13 155.148 64.2396L154.844 61.4108C154.105 54.5052 153.8 50.3636 156.256 45.6674C157.189 43.874 158.767 42.0436 163.319 42.0436M163.319 41.1191C158.684 41.1191 156.662 42.9033 155.444 45.2422C152.868 50.1787 153.182 54.5976 153.929 61.5125C154.613 67.8912 155.093 71.8478 155.684 79.7426C156.358 88.7653 155.157 94.4506 155.157 94.4506C155.157 94.4506 155.416 98.2686 166.643 101.134C172.663 102.669 177.732 103.205 181.859 103.205C191.276 103.205 195.856 100.432 195.856 100.432C195.856 100.432 196.336 89.3014 195.569 74.7414C194.711 58.4341 194.425 56.0398 193.169 52.1663C192.246 50.0216 190.491 48.0987 188.118 47.0171C186.161 46.1297 181.471 44.5858 178.683 43.5135C172.921 41.2855 166.357 41.1654 164.972 41.1654C164.796 41.1654 164.704 41.1654 164.704 41.1654C164.224 41.1284 163.762 41.1191 163.328 41.1191H163.319Z" fill="#E0E0E0"/>
<path d="M179.162 37.9303L178.636 43.93C175.358 44.6418 167.39 44.1333 165.895 42.0903L166.208 36.5898L179.171 37.921L179.162 37.9303Z" fill="#FFA8A7"/>
<path d="M187.703 22.5566C187.703 22.5566 189.226 23.7122 190.38 27.6966L188.128 29.3513C187.389 26.5503 186.586 23.703 187.703 22.5566Z" fill="#F28F8F"/>
<path d="M181.886 11.3989C187.481 11.7686 188.423 14.6899 187.592 24.2487C189.559 33.3268 186.844 36.9137 185.672 38.1062C183.031 39.5206 180.353 39.7517 176.706 38.7995C173.927 38.0785 166.892 35.98 163.947 31.6073C160.475 26.4674 159.57 18.6373 163.264 15.7253C168.462 11.63 179.661 11.2325 181.886 11.3804V11.3989Z" fill="#FFA8A7"/>
<path d="M185.672 38.1146C185.025 38.7709 181.277 39.9635 178.969 39.7046L179.163 37.9297C179.163 37.9297 182.366 38.5306 185.672 38.1053V38.1146Z" fill="#F28F8F"/>
<path d="M182.477 18.0082C182.357 18.415 182.181 18.8125 181.951 19.173C181.323 20.1622 180.418 20.6984 179.458 21.2993C179.809 22.4641 180.187 23.6751 180.196 24.9231C180.196 25.3206 180.169 25.7366 179.947 26.0694C179.55 26.6518 178.885 26.5964 178.581 26.0509C178.211 25.3946 177.953 24.7197 177.445 24.1558C176.854 23.4994 176.042 23.0002 175.146 22.917C171.767 22.5842 171.758 27.8536 173.106 29.6378C175.321 32.5591 177.14 30.6824 177.14 30.6824C177.14 30.6824 178.276 35.1845 175.026 37.1351C175.026 37.1351 169.782 38.4201 166.199 36.6081C164.556 33.2339 162.349 31.2556 160.586 27.6687C157.511 21.3825 158.979 15.8543 161.075 14.7172C160.484 11.7774 162.266 8.89315 166.061 7.09972C169.8 5.33402 174.971 6.23073 178.95 6.8686C181.314 7.24763 183.76 7.10896 186.068 6.46185C186.392 6.3694 186.724 6.26771 187.066 6.26771C187.407 6.26771 187.767 6.39713 187.961 6.67447C188.22 7.035 188.127 7.54345 187.933 7.94097C187.74 8.33848 187.444 8.68977 187.306 9.10577C188.127 8.8839 188.986 9.49404 189.355 10.2613C189.872 11.3337 189.66 12.6741 188.977 13.6541C188.293 14.634 187.213 15.2811 186.078 15.6139C184.933 15.9559 183.733 16.0114 182.541 16.0022C182.698 16.6678 182.662 17.3611 182.477 18.0175V18.0082Z" fill="#263238"/>
<path d="M178.858 41.369C179.716 41.3228 180.64 43.0978 182.32 44.845C182.32 44.845 177.584 47.5906 170.53 46.5275C163.467 45.4643 162.109 41.1564 162.109 41.1564C162.109 41.1564 163.725 39.9176 164.575 39.0764C165.609 38.0595 166.116 38.041 166.116 38.041L166.033 39.4924C166.033 39.4924 167.391 40.8976 171.693 41.7665C175.996 42.6355 178.858 41.3598 178.858 41.3598V41.369Z" fill="#E6E6E6"/>
<path d="M203.851 83.0062C203.851 83.0062 201.829 72.8742 200.361 65.7652C198.893 58.6562 199.456 50.447 188.284 47.6367C186.438 50.4563 185.228 54.7827 185.856 60.1722C186.475 65.5618 188.94 74.0205 189.558 76.8771C190.177 79.7336 192.273 85.4282 194.932 89.3941C198.477 94.6635 205.079 103.575 207.747 106.848C208.984 108.364 210.055 109.898 211.2 111.507C212.391 113.189 213.961 114.493 215.373 116C216.019 116.693 216.952 117.192 217.866 117.451C218.466 117.618 219.057 117.386 219.63 117.544C220.22 117.701 220.571 118.246 221.273 118.265C222.049 118.283 222.676 117.747 223.378 117.821C224.107 117.895 224.818 118.154 225.585 118.135C226.277 118.117 226.748 118.015 227.404 118.292C227.948 118.523 228.705 119.235 229.315 118.875C230.007 118.468 229.795 117.71 229.555 117.081C229.121 115.981 227.911 114.9 226.877 114.354C225.686 113.716 224.652 112.82 223.387 112.32C222.242 111.877 221.236 110.897 220.414 109.972C219.833 109.334 219.463 108.336 220.627 108.327C222.002 108.308 223.72 108.835 224.975 107.966C225.843 107.365 225.548 106.589 224.708 106.228C223.295 105.618 222.021 104.934 220.701 104.121C219.389 103.307 218.18 102.364 216.86 101.588C216.167 101.181 215.41 100.848 214.671 100.543C212.594 99.674 211.689 97.594 210.637 95.7543C209.178 93.1843 205.494 86.4081 203.86 82.9969L203.851 83.0062Z" fill="#FFA8A7"/>
<path d="M187.749 72.1714C187.749 72.1714 185.792 64.4615 185.284 61.2445C184.776 58.0274 184.499 49.6426 187.823 46.9062C190.223 47.4887 196.659 48.635 198.514 54.6994C200.37 60.7545 203.168 76.7197 203.168 76.7197L211.542 96.5307C211.542 96.5307 211.579 98.3796 208.07 100.755C204.562 103.14 202.771 102.327 202.771 102.327C202.771 102.327 195.855 91.8437 192.495 86.6761C190.242 83.2094 189.688 80.9075 187.74 72.1807L187.749 72.1714Z" fill="#E6E6E6"/>
</g>
<defs>
<clipPath id="clip0_1617_8952">
<rect width="420" height="400" fill="white"/>
</clipPath>
</defs>
</svg>
